<svg xmlns="http://www.w3.org/2000/svg" xmlns:xlink="http://www.w3.org/1999/xlink" contentStyleType="text/css" data-diagram-type="ACTIVITY" height="218px" preserveAspectRatio="none" style="width:538px;height:218px;background:#FFFFFF;" version="1.1" viewBox="0 0 538 218" width="538px" zoomAndPan="magnify"><defs/><g><rect fill="none" height="20.9531" style="stroke:none;stroke-width:1;" width="505.2114" x="15" y="12.7451"/><rect fill="#3498DB" height="193.8906" style="stroke:#3498DB;stroke-width:1;" width="113.4736" x="15" y="12.7451"/><ellipse cx="72.7368" cy="48.6982" fill="#222222" rx="10" ry="10" style="stroke:#222222;stroke-width:1;"/><rect fill="#F1F1F1" height="33.9688" rx="12.5" ry="12.5" style="stroke:#181818;stroke-width:0.5;" width="90.9746" x="27.2495" y="78.6982"/><text fill="#000000" font-family="sans-serif" font-size="12" lengthAdjust="spacing" textLength="70.9746" x="37.2495" y="99.8369">DOGE-MAIN</text><line style="stroke:#000000;stroke-width:1.5;" x1="15" x2="15" y1="12.7451" y2="206.6357"/><rect fill="#E74C3C" height="193.8906" style="stroke:#E74C3C;stroke-width:1;" width="389.877" x="128.4736" y="12.7451"/><rect fill="#F1F1F1" height="33.9688" rx="12.5" ry="12.5" style="stroke:#181818;stroke-width:0.5;" width="379.877" x="134.4736" y="132.667"/><text fill="#000000" font-family="sans-serif" font-size="12" lengthAdjust="spacing" textLength="359.877" x="144.4736" y="153.8057">RETURN TRANSID('DSND') COMMAREA(DOGECOMMS-AREA)</text><ellipse cx="324.4121" cy="196.6357" fill="none" rx="10" ry="10" style="stroke:#222222;stroke-width:1.5;"/><line style="stroke:#222222;stroke-width:2.5;" x1="318.2249" x2="330.5993" y1="190.4486" y2="202.8229"/><line style="stroke:#222222;stroke-width:2.5;" x1="330.5993" x2="318.2249" y1="190.4486" y2="202.8229"/><line style="stroke:#000000;stroke-width:1.5;" x1="128.4736" x2="128.4736" y1="12.7451" y2="206.6357"/><line style="stroke:#000000;stroke-width:1.5;" x1="518.3506" x2="518.3506" y1="12.7451" y2="206.6357"/><line style="stroke:#181818;stroke-width:1;" x1="72.7368" x2="72.7368" y1="58.6982" y2="78.6982"/><polygon fill="#181818" points="68.7368,68.6982,72.7368,78.6982,76.7368,68.6982,72.7368,72.6982" style="stroke:#181818;stroke-width:1;"/><line style="stroke:#181818;stroke-width:1;" x1="324.4121" x2="324.4121" y1="166.6357" y2="186.6357"/><polygon fill="#181818" points="320.4121,176.6357,324.4121,186.6357,328.4121,176.6357,324.4121,180.6357" style="stroke:#181818;stroke-width:1;"/><line style="stroke:#181818;stroke-width:1;" x1="72.7368" x2="72.7368" y1="112.667" y2="117.667"/><line style="stroke:#181818;stroke-width:1;" x1="72.7368" x2="324.4121" y1="117.667" y2="117.667"/><line style="stroke:#181818;stroke-width:1;" x1="324.4121" x2="324.4121" y1="117.667" y2="132.667"/><polygon fill="#181818" points="320.4121,122.667,324.4121,132.667,328.4121,122.667,324.4121,126.667" style="stroke:#181818;stroke-width:1;"/><text fill="#000000" font-family="sans-serif" font-size="18" lengthAdjust="spacing" textLength="103.4736" x="20" y="29.4531">DOGESEND</text><text fill="#000000" font-family="sans-serif" font-size="18" lengthAdjust="spacing" textLength="74.9971" x="285.9136" y="29.4531">External</text><!--SRC=[gr4sDh6qS76gSV5tTmrszNEfuLAeKNOrDt4sTgvnhIX9BSfBp0698SaNboGMbQ0AMO7OkhwEddxMG0aaVLP1hY6XGNuA8K6EVi6UBXhgBi5-BkgQ2ix-lhwEGQwE6Y2D84wmBeYh2TIUcfS20000]--></g></svg>