<svg xmlns="http://www.w3.org/2000/svg" xmlns:xlink="http://www.w3.org/1999/xlink" contentStyleType="text/css" data-diagram-type="ACTIVITY" height="326px" preserveAspectRatio="none" style="width:887px;height:326px;background:#FFFFFF;" version="1.1" viewBox="0 0 887 326" width="887px" zoomAndPan="magnify"><defs/><g><rect fill="none" height="20.9531" style="stroke:none;stroke-width:1;" width="854.187" x="15" y="12.7451"/><rect fill="#3498DB" height="301.8281" style="stroke:#3498DB;stroke-width:1;" width="243.9199" x="15" y="12.7451"/><ellipse cx="137.96" cy="48.6982" fill="#222222" rx="10" ry="10" style="stroke:#222222;stroke-width:1;"/><rect fill="#F1F1F1" height="33.9688" rx="12.5" ry="12.5" style="stroke:#181818;stroke-width:0.5;" width="90.9746" x="92.4727" y="78.6982"/><text fill="#000000" font-family="sans-serif" font-size="12" lengthAdjust="spacing" textLength="70.9746" x="102.4727" y="99.8369">DOGE-MAIN</text><rect fill="#F1F1F1" height="33.9688" rx="12.5" ry="12.5" style="stroke:#181818;stroke-width:0.5;" width="233.9199" x="21" y="132.667"/><text fill="#000000" font-family="sans-serif" font-size="12" lengthAdjust="spacing" textLength="213.9199" x="31" y="153.8057">Assign value to DOGECOMMS-AREA</text><line style="stroke:#000000;stroke-width:1.5;" x1="15" x2="15" y1="12.7451" y2="314.5732"/><rect fill="#E74C3C" height="301.8281" style="stroke:#E74C3C;stroke-width:1;" width="386.5371" x="258.9199" y="12.7451"/><rect fill="#F1F1F1" height="33.9688" rx="12.5" ry="12.5" style="stroke:#181818;stroke-width:0.5;" width="376.5371" x="264.9199" y="240.6045"/><text fill="#000000" font-family="sans-serif" font-size="12" lengthAdjust="spacing" textLength="356.5371" x="274.9199" y="261.7432">RETURN TRANSID('DEET') COMMAREA(DOGECOMMS-AREA)</text><ellipse cx="453.1885" cy="304.5732" fill="none" rx="10" ry="10" style="stroke:#222222;stroke-width:1.5;"/><line style="stroke:#222222;stroke-width:2.5;" x1="447.0013" x2="459.3757" y1="298.3861" y2="310.7604"/><line style="stroke:#222222;stroke-width:2.5;" x1="459.3757" x2="447.0013" y1="298.3861" y2="310.7604"/><line style="stroke:#000000;stroke-width:1.5;" x1="258.9199" x2="258.9199" y1="12.7451" y2="314.5732"/><rect fill="#F1C40F" height="301.8281" style="stroke:#F1C40F;stroke-width:1;" width="221.8691" x="645.457" y="12.7451"/><rect fill="#F1F1F1" height="33.9688" rx="12.5" ry="12.5" style="stroke:#181818;stroke-width:0.5;" width="196.2734" x="659.2549" y="186.6357"/><text fill="#000000" font-family="sans-serif" font-size="12" lengthAdjust="spacing" textLength="176.2734" x="669.2549" y="207.7744">XCTL PROGRAM('DOGEQUIT')</text><line style="stroke:#000000;stroke-width:1.5;" x1="645.457" x2="645.457" y1="12.7451" y2="314.5732"/><line style="stroke:#000000;stroke-width:1.5;" x1="867.3262" x2="867.3262" y1="12.7451" y2="314.5732"/><line style="stroke:#181818;stroke-width:1;" x1="137.96" x2="137.96" y1="58.6982" y2="78.6982"/><polygon fill="#181818" points="133.96,68.6982,137.96,78.6982,141.96,68.6982,137.96,72.6982" style="stroke:#181818;stroke-width:1;"/><line style="stroke:#181818;stroke-width:1;" x1="137.96" x2="137.96" y1="112.667" y2="132.667"/><polygon fill="#181818" points="133.96,122.667,137.96,132.667,141.96,122.667,137.96,126.667" style="stroke:#181818;stroke-width:1;"/><line style="stroke:#181818;stroke-width:1;" x1="453.1885" x2="453.1885" y1="274.5732" y2="294.5732"/><polygon fill="#181818" points="449.1885,284.5732,453.1885,294.5732,457.1885,284.5732,453.1885,288.5732" style="stroke:#181818;stroke-width:1;"/><line style="stroke:#181818;stroke-width:1;" x1="137.96" x2="137.96" y1="166.6357" y2="171.6357"/><line style="stroke:#181818;stroke-width:1;" x1="137.96" x2="757.3916" y1="171.6357" y2="171.6357"/><line style="stroke:#181818;stroke-width:1;" x1="757.3916" x2="757.3916" y1="171.6357" y2="186.6357"/><polygon fill="#181818" points="753.3916,176.6357,757.3916,186.6357,761.3916,176.6357,757.3916,180.6357" style="stroke:#181818;stroke-width:1;"/><line style="stroke:#181818;stroke-width:1;" x1="757.3916" x2="757.3916" y1="220.6045" y2="225.6045"/><line style="stroke:#181818;stroke-width:1;" x1="757.3916" x2="453.1885" y1="225.6045" y2="225.6045"/><line style="stroke:#181818;stroke-width:1;" x1="453.1885" x2="453.1885" y1="225.6045" y2="240.6045"/><polygon fill="#181818" points="449.1885,230.6045,453.1885,240.6045,457.1885,230.6045,453.1885,234.6045" style="stroke:#181818;stroke-width:1;"/><text fill="#000000" font-family="sans-serif" font-size="18" lengthAdjust="spacing" textLength="100.9512" x="86.4844" y="29.4531">DOGEDEET</text><text fill="#000000" font-family="sans-serif" font-size="18" lengthAdjust="spacing" textLength="74.9971" x="414.6899" y="29.4531">External</text><text fill="#000000" font-family="sans-serif" font-size="18" lengthAdjust="spacing" textLength="211.8691" x="650.457" y="29.4531">Other COBOL Programs</text><!--SRC=[TOv12u8m68Rl_Og11_KW50gLdUOsHMYkveIkGcA1ASmL7VRZy-kaGRUFztqVdiywORJVqSHIaJ7AcB8hP1ssZKX8B7kRHlTrzytI3OdMgHNcrcX4H2AEwAI7LjUF4VePFvfQcsKKmnrmd1U7dmAFuxtjqQlkdWqo0uAE2CxB04k6OVt765-8cW8fCecvvm9thdBb-i3CFeybKvKia9AuA7CwBIUpwoEGWC9R6W5l-ki7]--></g></svg>