<svg xmlns="http://www.w3.org/2000/svg" xmlns:xlink="http://www.w3.org/1999/xlink" contentStyleType="text/css" data-diagram-type="ACTIVITY" height="380px" preserveAspectRatio="none" style="width:668px;height:380px;background:#FFFFFF;" version="1.1" viewBox="0 0 668 380" width="668px" zoomAndPan="magnify"><defs/><g><rect fill="none" height="20.9531" style="stroke:none;stroke-width:1;" width="635.6577" x="15" y="12.7451"/><rect fill="#3498DB" height="355.7969" style="stroke:#3498DB;stroke-width:1;" width="243.9199" x="15" y="12.7451"/><ellipse cx="137.96" cy="48.6982" fill="#222222" rx="10" ry="10" style="stroke:#222222;stroke-width:1;"/><rect fill="#F1F1F1" height="33.9688" rx="12.5" ry="12.5" style="stroke:#181818;stroke-width:0.5;" width="90.9746" x="92.4727" y="78.6982"/><text fill="#000000" font-family="sans-serif" font-size="12" lengthAdjust="spacing" textLength="70.9746" x="102.4727" y="99.8369">DOGE-MAIN</text><rect fill="#F1F1F1" height="33.9688" rx="12.5" ry="12.5" style="stroke:#181818;stroke-width:0.5;" width="233.9199" x="21" y="132.667"/><text fill="#000000" font-family="sans-serif" font-size="12" lengthAdjust="spacing" textLength="213.9199" x="31" y="153.8057">Assign value to DOGECOMMS-AREA</text><rect fill="#F1F1F1" height="33.9688" rx="12.5" ry="12.5" style="stroke:#181818;stroke-width:0.5;" width="111.4063" x="82.2568" y="186.6357"/><text fill="#000000" font-family="sans-serif" font-size="12" lengthAdjust="spacing" textLength="91.4063" x="92.2568" y="207.7744">RECEIVE-INPUT</text><rect fill="#F1F1F1" height="33.9688" rx="12.5" ry="12.5" style="stroke:#181818;stroke-width:0.5;" width="99.1777" x="88.3711" y="240.6045"/><text fill="#000000" font-family="sans-serif" font-size="12" lengthAdjust="spacing" textLength="79.1777" x="98.3711" y="261.7432">PARSE-INPUT</text><line style="stroke:#000000;stroke-width:1.5;" x1="15" x2="15" y1="12.7451" y2="368.542"/><rect fill="#E74C3C" height="355.7969" style="stroke:#E74C3C;stroke-width:1;" width="389.877" x="258.9199" y="12.7451"/><rect fill="#F1F1F1" height="33.9688" rx="12.5" ry="12.5" style="stroke:#181818;stroke-width:0.5;" width="379.877" x="264.9199" y="294.5732"/><text fill="#000000" font-family="sans-serif" font-size="12" lengthAdjust="spacing" textLength="359.877" x="274.9199" y="315.7119">RETURN TRANSID('DSND') COMMAREA(DOGECOMMS-AREA)</text><ellipse cx="454.8584" cy="358.542" fill="none" rx="10" ry="10" style="stroke:#222222;stroke-width:1.5;"/><line style="stroke:#222222;stroke-width:2.5;" x1="448.6712" x2="461.0456" y1="352.3548" y2="364.7292"/><line style="stroke:#222222;stroke-width:2.5;" x1="461.0456" x2="448.6712" y1="352.3548" y2="364.7292"/><line style="stroke:#000000;stroke-width:1.5;" x1="258.9199" x2="258.9199" y1="12.7451" y2="368.542"/><line style="stroke:#000000;stroke-width:1.5;" x1="648.7969" x2="648.7969" y1="12.7451" y2="368.542"/><line style="stroke:#181818;stroke-width:1;" x1="137.96" x2="137.96" y1="58.6982" y2="78.6982"/><polygon fill="#181818" points="133.96,68.6982,137.96,78.6982,141.96,68.6982,137.96,72.6982" style="stroke:#181818;stroke-width:1;"/><line style="stroke:#181818;stroke-width:1;" x1="137.96" x2="137.96" y1="112.667" y2="132.667"/><polygon fill="#181818" points="133.96,122.667,137.96,132.667,141.96,122.667,137.96,126.667" style="stroke:#181818;stroke-width:1;"/><line style="stroke:#181818;stroke-width:1;" x1="137.96" x2="137.96" y1="166.6357" y2="186.6357"/><polygon fill="#181818" points="133.96,176.6357,137.96,186.6357,141.96,176.6357,137.96,180.6357" style="stroke:#181818;stroke-width:1;"/><line style="stroke:#181818;stroke-width:1;" x1="137.96" x2="137.96" y1="220.6045" y2="240.6045"/><polygon fill="#181818" points="133.96,230.6045,137.96,240.6045,141.96,230.6045,137.96,234.6045" style="stroke:#181818;stroke-width:1;"/><line style="stroke:#181818;stroke-width:1;" x1="454.8584" x2="454.8584" y1="328.542" y2="348.542"/><polygon fill="#181818" points="450.8584,338.542,454.8584,348.542,458.8584,338.542,454.8584,342.542" style="stroke:#181818;stroke-width:1;"/><line style="stroke:#181818;stroke-width:1;" x1="137.96" x2="137.96" y1="274.5732" y2="279.5732"/><line style="stroke:#181818;stroke-width:1;" x1="137.96" x2="454.8584" y1="279.5732" y2="279.5732"/><line style="stroke:#181818;stroke-width:1;" x1="454.8584" x2="454.8584" y1="279.5732" y2="294.5732"/><polygon fill="#181818" points="450.8584,284.5732,454.8584,294.5732,458.8584,284.5732,454.8584,288.5732" style="stroke:#181818;stroke-width:1;"/><text fill="#000000" font-family="sans-serif" font-size="18" lengthAdjust="spacing" textLength="103.4736" x="85.2231" y="29.4531">DOGESEND</text><text fill="#000000" font-family="sans-serif" font-size="18" lengthAdjust="spacing" textLength="74.9971" x="416.3599" y="29.4531">External</text><!--SRC=[NOuz2yCW54Nt_WeXGv8XKmBzcgm-YeCcgEaUY9H2i11jwU2FRzoCs-EUUpal56rtFj5ReFqT50WQ3YWKSEn8ImByl5djjCGiuSvFgzz7btWt73DnpG1sxlMqw3ij7uFy6qL6UivLWoNWl2s107j0myGmwXmEMAe49TzjEprAWRJ4GZ5QbLG9MjOeYgAcsblhRMxi_0S0]--></g></svg>