<svg xmlns="http://www.w3.org/2000/svg" xmlns:xlink="http://www.w3.org/1999/xlink" contentStyleType="text/css" data-diagram-type="ACTIVITY" height="380px" preserveAspectRatio="none" style="width:641px;height:380px;background:#FFFFFF;" version="1.1" viewBox="0 0 641 380" width="641px" zoomAndPan="magnify"><defs/><g><rect fill="none" height="20.9531" style="stroke:none;stroke-width:1;" width="608.5054" x="15" y="12.7451"/><rect fill="#3498DB" height="355.7969" style="stroke:#3498DB;stroke-width:1;" width="216.7676" x="15" y="12.7451"/><ellipse cx="124.3838" cy="48.6982" fill="#222222" rx="10" ry="10" style="stroke:#222222;stroke-width:1;"/><rect fill="#F1F1F1" height="33.9688" rx="12.5" ry="12.5" style="stroke:#181818;stroke-width:0.5;" width="90.9746" x="78.8965" y="78.6982"/><text fill="#000000" font-family="sans-serif" font-size="12" lengthAdjust="spacing" textLength="70.9746" x="88.8965" y="99.8369">DOGE-MAIN</text><rect fill="#F1F1F1" height="33.9688" rx="12.5" ry="12.5" style="stroke:#181818;stroke-width:0.5;" width="206.7676" x="21" y="132.667"/><text fill="#000000" font-family="sans-serif" font-size="12" lengthAdjust="spacing" textLength="186.7676" x="31" y="153.8057">Assign value to WTO-MESSAGE</text><rect fill="#F1F1F1" height="33.9688" rx="12.5" ry="12.5" style="stroke:#181818;stroke-width:0.5;" width="88.5371" x="80.1152" y="186.6357"/><text fill="#000000" font-family="sans-serif" font-size="12" lengthAdjust="spacing" textLength="68.5371" x="90.1152" y="207.7744">DOGE-WTO</text><line style="stroke:#000000;stroke-width:1.5;" x1="15" x2="15" y1="12.7451" y2="368.542"/><rect fill="#E74C3C" height="355.7969" style="stroke:#E74C3C;stroke-width:1;" width="389.877" x="231.7676" y="12.7451"/><rect fill="#F1F1F1" height="33.9688" rx="12.5" ry="12.5" style="stroke:#181818;stroke-width:0.5;" width="322.1914" x="266.6104" y="240.6045"/><text fill="#000000" font-family="sans-serif" font-size="12" lengthAdjust="spacing" textLength="302.1914" x="276.6104" y="261.7432">SEND MAP('DOGESN1') MAPSET('DOGESN') ERASE</text><rect fill="#F1F1F1" height="33.9688" rx="12.5" ry="12.5" style="stroke:#181818;stroke-width:0.5;" width="379.877" x="237.7676" y="294.5732"/><text fill="#000000" font-family="sans-serif" font-size="12" lengthAdjust="spacing" textLength="359.877" x="247.7676" y="315.7119">RETURN TRANSID('DSND') COMMAREA(DOGECOMMS-AREA)</text><ellipse cx="427.7061" cy="358.542" fill="none" rx="10" ry="10" style="stroke:#222222;stroke-width:1.5;"/><line style="stroke:#222222;stroke-width:2.5;" x1="421.5189" x2="433.8932" y1="352.3548" y2="364.7292"/><line style="stroke:#222222;stroke-width:2.5;" x1="433.8932" x2="421.5189" y1="352.3548" y2="364.7292"/><line style="stroke:#000000;stroke-width:1.5;" x1="231.7676" x2="231.7676" y1="12.7451" y2="368.542"/><line style="stroke:#000000;stroke-width:1.5;" x1="621.6445" x2="621.6445" y1="12.7451" y2="368.542"/><line style="stroke:#181818;stroke-width:1;" x1="124.3838" x2="124.3838" y1="58.6982" y2="78.6982"/><polygon fill="#181818" points="120.3838,68.6982,124.3838,78.6982,128.3838,68.6982,124.3838,72.6982" style="stroke:#181818;stroke-width:1;"/><line style="stroke:#181818;stroke-width:1;" x1="124.3838" x2="124.3838" y1="112.667" y2="132.667"/><polygon fill="#181818" points="120.3838,122.667,124.3838,132.667,128.3838,122.667,124.3838,126.667" style="stroke:#181818;stroke-width:1;"/><line style="stroke:#181818;stroke-width:1;" x1="124.3838" x2="124.3838" y1="166.6357" y2="186.6357"/><polygon fill="#181818" points="120.3838,176.6357,124.3838,186.6357,128.3838,176.6357,124.3838,180.6357" style="stroke:#181818;stroke-width:1;"/><line style="stroke:#181818;stroke-width:1;" x1="427.7061" x2="427.7061" y1="274.5732" y2="294.5732"/><polygon fill="#181818" points="423.7061,284.5732,427.7061,294.5732,431.7061,284.5732,427.7061,288.5732" style="stroke:#181818;stroke-width:1;"/><line style="stroke:#181818;stroke-width:1;" x1="427.7061" x2="427.7061" y1="328.542" y2="348.542"/><polygon fill="#181818" points="423.7061,338.542,427.7061,348.542,431.7061,338.542,427.7061,342.542" style="stroke:#181818;stroke-width:1;"/><line style="stroke:#181818;stroke-width:1;" x1="124.3838" x2="124.3838" y1="220.6045" y2="225.6045"/><line style="stroke:#181818;stroke-width:1;" x1="124.3838" x2="427.7061" y1="225.6045" y2="225.6045"/><line style="stroke:#181818;stroke-width:1;" x1="427.7061" x2="427.7061" y1="225.6045" y2="240.6045"/><polygon fill="#181818" points="423.7061,230.6045,427.7061,240.6045,431.7061,230.6045,427.7061,234.6045" style="stroke:#181818;stroke-width:1;"/><text fill="#000000" font-family="sans-serif" font-size="18" lengthAdjust="spacing" textLength="103.4736" x="71.647" y="29.4531">DOGESEND</text><text fill="#000000" font-family="sans-serif" font-size="18" lengthAdjust="spacing" textLength="74.9971" x="389.2075" y="29.4531">External</text><!--SRC=[ROr12u9048Nl_Og53kh1GoXKUfhSGJpi6Zj6Po69G0nqYmxxuzi90fDk-xxllHstJjBzJXwSh4iarDAjX5lZDYsImk7BTkFGzincVhBjQ7zHnkzOGQNpXO1fkbq7yMpxHoViNPoREbP812Nc__xmdldiTCPUA3Y6mQUjDq74aR3v4W_G0E5oQR0v6IqQ0vegwTkafUyMjL9W449USw2OO-JdtN1v0m00]--></g></svg>