<svg xmlns="http://www.w3.org/2000/svg" xmlns:xlink="http://www.w3.org/1999/xlink" contentStyleType="text/css" data-diagram-type="ACTIVITY" height="542px" preserveAspectRatio="none" style="width:669px;height:542px;background:#FFFFFF;" version="1.1" viewBox="0 0 669 542" width="669px" zoomAndPan="magnify"><defs/><g><rect fill="none" height="20.9531" style="stroke:none;stroke-width:1;" width="636.1499" x="15" y="12.7451"/><rect fill="#3498DB" height="517.7031" style="stroke:#3498DB;stroke-width:1;" width="243.9199" x="15" y="12.7451"/><ellipse cx="137.96" cy="48.6982" fill="#222222" rx="10" ry="10" style="stroke:#222222;stroke-width:1;"/><rect fill="#F1F1F1" height="33.9688" rx="12.5" ry="12.5" style="stroke:#181818;stroke-width:0.5;" width="93.582" x="91.1689" y="78.6982"/><text fill="#000000" font-family="sans-serif" font-size="12" lengthAdjust="spacing" textLength="73.582" x="101.1689" y="99.8369">00000-MAIN</text><rect fill="#F1F1F1" height="33.9688" rx="12.5" ry="12.5" style="stroke:#181818;stroke-width:0.5;" width="233.9199" x="21" y="132.667"/><text fill="#000000" font-family="sans-serif" font-size="12" lengthAdjust="spacing" textLength="213.9199" x="31" y="153.8057">Assign value to DOGECOMMS-AREA</text><rect fill="#F1F1F1" height="33.9688" rx="12.5" ry="12.5" style="stroke:#181818;stroke-width:0.5;" width="206.7676" x="34.5762" y="186.6357"/><text fill="#000000" font-family="sans-serif" font-size="12" lengthAdjust="spacing" textLength="186.7676" x="44.5762" y="207.7744">Assign value to WTO-MESSAGE</text><rect fill="#F1F1F1" height="33.9688" rx="12.5" ry="12.5" style="stroke:#181818;stroke-width:0.5;" width="88.5371" x="93.6914" y="240.6045"/><text fill="#000000" font-family="sans-serif" font-size="12" lengthAdjust="spacing" textLength="68.5371" x="103.6914" y="261.7432">DOGE-WTO</text><rect fill="#F1F1F1" height="33.9688" rx="12.5" ry="12.5" style="stroke:#181818;stroke-width:0.5;" width="206.7676" x="34.5762" y="294.5732"/><text fill="#000000" font-family="sans-serif" font-size="12" lengthAdjust="spacing" textLength="186.7676" x="44.5762" y="315.7119">Assign value to WTO-MESSAGE</text><rect fill="#F1F1F1" height="33.9688" rx="12.5" ry="12.5" style="stroke:#181818;stroke-width:0.5;" width="88.5371" x="93.6914" y="348.542"/><text fill="#000000" font-family="sans-serif" font-size="12" lengthAdjust="spacing" textLength="68.5371" x="103.6914" y="369.6807">DOGE-WTO</text><line style="stroke:#000000;stroke-width:1.5;" x1="15" x2="15" y1="12.7451" y2="530.4482"/><rect fill="#E74C3C" height="517.7031" style="stroke:#E74C3C;stroke-width:1;" width="390.3691" x="258.9199" y="12.7451"/><rect fill="#F1F1F1" height="33.9688" rx="12.5" ry="12.5" style="stroke:#181818;stroke-width:0.5;" width="323.7148" x="293.2471" y="402.5107"/><text fill="#000000" font-family="sans-serif" font-size="12" lengthAdjust="spacing" textLength="303.7148" x="303.2471" y="423.6494">SEND MAP('DOGECN1') MAPSET('DOGECN') ERASE</text><rect fill="#F1F1F1" height="33.9688" rx="12.5" ry="12.5" style="stroke:#181818;stroke-width:0.5;" width="380.3691" x="264.9199" y="456.4795"/><text fill="#000000" font-family="sans-serif" font-size="12" lengthAdjust="spacing" textLength="360.3691" x="274.9199" y="477.6182">RETURN TRANSID('DOGE') COMMAREA(DOGECOMMS-AREA)</text><ellipse cx="455.1045" cy="520.4482" fill="none" rx="10" ry="10" style="stroke:#222222;stroke-width:1.5;"/><line style="stroke:#222222;stroke-width:2.5;" x1="448.9173" x2="461.2917" y1="514.2611" y2="526.6354"/><line style="stroke:#222222;stroke-width:2.5;" x1="461.2917" x2="448.9173" y1="514.2611" y2="526.6354"/><line style="stroke:#000000;stroke-width:1.5;" x1="258.9199" x2="258.9199" y1="12.7451" y2="530.4482"/><line style="stroke:#000000;stroke-width:1.5;" x1="649.2891" x2="649.2891" y1="12.7451" y2="530.4482"/><line style="stroke:#181818;stroke-width:1;" x1="137.96" x2="137.96" y1="58.6982" y2="78.6982"/><polygon fill="#181818" points="133.96,68.6982,137.96,78.6982,141.96,68.6982,137.96,72.6982" style="stroke:#181818;stroke-width:1;"/><line style="stroke:#181818;stroke-width:1;" x1="137.96" x2="137.96" y1="112.667" y2="132.667"/><polygon fill="#181818" points="133.96,122.667,137.96,132.667,141.96,122.667,137.96,126.667" style="stroke:#181818;stroke-width:1;"/><line style="stroke:#181818;stroke-width:1;" x1="137.96" x2="137.96" y1="166.6357" y2="186.6357"/><polygon fill="#181818" points="133.96,176.6357,137.96,186.6357,141.96,176.6357,137.96,180.6357" style="stroke:#181818;stroke-width:1;"/><line style="stroke:#181818;stroke-width:1;" x1="137.96" x2="137.96" y1="220.6045" y2="240.6045"/><polygon fill="#181818" points="133.96,230.6045,137.96,240.6045,141.96,230.6045,137.96,234.6045" style="stroke:#181818;stroke-width:1;"/><line style="stroke:#181818;stroke-width:1;" x1="137.96" x2="137.96" y1="274.5732" y2="294.5732"/><polygon fill="#181818" points="133.96,284.5732,137.96,294.5732,141.96,284.5732,137.96,288.5732" style="stroke:#181818;stroke-width:1;"/><line style="stroke:#181818;stroke-width:1;" x1="137.96" x2="137.96" y1="328.542" y2="348.542"/><polygon fill="#181818" points="133.96,338.542,137.96,348.542,141.96,338.542,137.96,342.542" style="stroke:#181818;stroke-width:1;"/><line style="stroke:#181818;stroke-width:1;" x1="455.1045" x2="455.1045" y1="436.4795" y2="456.4795"/><polygon fill="#181818" points="451.1045,446.4795,455.1045,456.4795,459.1045,446.4795,455.1045,450.4795" style="stroke:#181818;stroke-width:1;"/><line style="stroke:#181818;stroke-width:1;" x1="455.1045" x2="455.1045" y1="490.4482" y2="510.4482"/><polygon fill="#181818" points="451.1045,500.4482,455.1045,510.4482,459.1045,500.4482,455.1045,504.4482" style="stroke:#181818;stroke-width:1;"/><line style="stroke:#181818;stroke-width:1;" x1="137.96" x2="137.96" y1="382.5107" y2="387.5107"/><line style="stroke:#181818;stroke-width:1;" x1="137.96" x2="455.1045" y1="387.5107" y2="387.5107"/><line style="stroke:#181818;stroke-width:1;" x1="455.1045" x2="455.1045" y1="387.5107" y2="402.5107"/><polygon fill="#181818" points="451.1045,392.5107,455.1045,402.5107,459.1045,392.5107,455.1045,396.5107" style="stroke:#181818;stroke-width:1;"/><text fill="#000000" font-family="sans-serif" font-size="18" lengthAdjust="spacing" textLength="98.8594" x="87.5303" y="29.4531">DOGECOIN</text><text fill="#000000" font-family="sans-serif" font-size="18" lengthAdjust="spacing" textLength="74.9971" x="416.606" y="29.4531">External</text><!--SRC=[gr4sDh6qS76gSV5tTtNsz_IhuLAeKNOrDt4sTgvnhIX9BSfBp0698SaNboGMbQ0AMHc0WAwlewUVDPgCOt5nPdgUGbbYJccgGac-0aJErpTOrp78rP6Gwl0GVrrVr-1WHtTNTAKWjYvGdaf687dMAjZLpqN1rp50GnsisizGNHF43NODWOa01Lo378DTqNK6kOQ41lafX0Gv-WLxka1K0zM2F0pohWQgxpM1sbFpKW00]--></g></svg>