<svg xmlns="http://www.w3.org/2000/svg" xmlns:xlink="http://www.w3.org/1999/xlink" contentStyleType="text/css" data-diagram-type="ACTIVITY" height="296px" preserveAspectRatio="none" style="width:228px;height:296px;background:#FFFFFF;" version="1.1" viewBox="0 0 228 296" width="228px" zoomAndPan="magnify"><defs/><g><ellipse cx="114.3838" cy="20" fill="#222222" rx="10" ry="10" style="stroke:#222222;stroke-width:1;"/><rect fill="#F1F1F1" height="33.9688" rx="12.5" ry="12.5" style="stroke:#181818;stroke-width:0.5;" width="109.2852" x="59.7412" y="50"/><text fill="#000000" font-family="sans-serif" font-size="12" lengthAdjust="spacing" textLength="89.2852" x="69.7412" y="71.1387">PARSE-OPTION</text><rect fill="#F1F1F1" height="33.9688" rx="12.5" ry="12.5" style="stroke:#181818;stroke-width:0.5;" width="206.7676" x="11" y="103.9688"/><text fill="#000000" font-family="sans-serif" font-size="12" lengthAdjust="spacing" textLength="186.7676" x="21" y="125.1074">Assign value to WTO-MESSAGE</text><rect fill="#F1F1F1" height="33.9688" rx="12.5" ry="12.5" style="stroke:#181818;stroke-width:0.5;" width="88.5371" x="70.1152" y="157.9375"/><text fill="#000000" font-family="sans-serif" font-size="12" lengthAdjust="spacing" textLength="68.5371" x="80.1152" y="179.0762">DOGE-WTO</text><rect fill="#F1F1F1" height="33.9688" rx="12.5" ry="12.5" style="stroke:#181818;stroke-width:0.5;" width="206.7676" x="11" y="211.9063"/><text fill="#000000" font-family="sans-serif" font-size="12" lengthAdjust="spacing" textLength="186.7676" x="21" y="233.0449">Assign value to WTO-MESSAGE</text><ellipse cx="114.3838" cy="275.875" fill="none" rx="10" ry="10" style="stroke:#222222;stroke-width:1.5;"/><line style="stroke:#222222;stroke-width:2.5;" x1="108.1966" x2="120.571" y1="269.6878" y2="282.0622"/><line style="stroke:#222222;stroke-width:2.5;" x1="120.571" x2="108.1966" y1="269.6878" y2="282.0622"/><line style="stroke:#181818;stroke-width:1;" x1="114.3838" x2="114.3838" y1="30" y2="50"/><polygon fill="#181818" points="110.3838,40,114.3838,50,118.3838,40,114.3838,44" style="stroke:#181818;stroke-width:1;"/><line style="stroke:#181818;stroke-width:1;" x1="114.3838" x2="114.3838" y1="83.9688" y2="103.9688"/><polygon fill="#181818" points="110.3838,93.9688,114.3838,103.9688,118.3838,93.9688,114.3838,97.9688" style="stroke:#181818;stroke-width:1;"/><line style="stroke:#181818;stroke-width:1;" x1="114.3838" x2="114.3838" y1="137.9375" y2="157.9375"/><polygon fill="#181818" points="110.3838,147.9375,114.3838,157.9375,118.3838,147.9375,114.3838,151.9375" style="stroke:#181818;stroke-width:1;"/><line style="stroke:#181818;stroke-width:1;" x1="114.3838" x2="114.3838" y1="191.9063" y2="211.9063"/><polygon fill="#181818" points="110.3838,201.9063,114.3838,211.9063,118.3838,201.9063,114.3838,205.9063" style="stroke:#181818;stroke-width:1;"/><line style="stroke:#181818;stroke-width:1;" x1="114.3838" x2="114.3838" y1="245.875" y2="265.875"/><polygon fill="#181818" points="110.3838,255.875,114.3838,265.875,118.3838,255.875,114.3838,259.875" style="stroke:#181818;stroke-width:1;"/><!--SRC=[gr4sDh6qS76gSV5tTmq9SlIhuL90PXUN91QLe0fP1JW61Rlg-WU4UFhxMQF9EHONPwRdAPGbvfIcAfJaAuI7-ElwkWO7ExgxeYi5iNM1ygGPaPgN0W00]--></g></svg>