<svg xmlns="http://www.w3.org/2000/svg" xmlns:xlink="http://www.w3.org/1999/xlink" contentStyleType="text/css" data-diagram-type="ACTIVITY" height="326px" preserveAspectRatio="none" style="width:672px;height:326px;background:#FFFFFF;" version="1.1" viewBox="0 0 672 326" width="672px" zoomAndPan="magnify"><defs/><g><rect fill="none" height="20.9531" style="stroke:none;stroke-width:1;" width="639.4839" x="15" y="12.7451"/><rect fill="#3498DB" height="301.8281" style="stroke:#3498DB;stroke-width:1;" width="216.7676" x="15" y="12.7451"/><ellipse cx="124.3838" cy="48.6982" fill="#222222" rx="10" ry="10" style="stroke:#222222;stroke-width:1;"/><rect fill="#F1F1F1" height="33.9688" rx="12.5" ry="12.5" style="stroke:#181818;stroke-width:0.5;" width="121.5137" x="63.627" y="78.6982"/><text fill="#000000" font-family="sans-serif" font-size="12" lengthAdjust="spacing" textLength="101.5137" x="73.627" y="99.8369">RECEIVE-OPTION</text><rect fill="#F1F1F1" height="33.9688" rx="12.5" ry="12.5" style="stroke:#181818;stroke-width:0.5;" width="206.7676" x="21" y="132.667"/><text fill="#000000" font-family="sans-serif" font-size="12" lengthAdjust="spacing" textLength="186.7676" x="31" y="153.8057">Assign value to WTO-MESSAGE</text><rect fill="#F1F1F1" height="33.9688" rx="12.5" ry="12.5" style="stroke:#181818;stroke-width:0.5;" width="88.5371" x="80.1152" y="186.6357"/><text fill="#000000" font-family="sans-serif" font-size="12" lengthAdjust="spacing" textLength="68.5371" x="90.1152" y="207.7744">DOGE-WTO</text><line style="stroke:#000000;stroke-width:1.5;" x1="15" x2="15" y1="12.7451" y2="314.5732"/><rect fill="#E74C3C" height="301.8281" style="stroke:#E74C3C;stroke-width:1;" width="420.8555" x="231.7676" y="12.7451"/><rect fill="#F1F1F1" height="33.9688" rx="12.5" ry="12.5" style="stroke:#181818;stroke-width:0.5;" width="410.8555" x="237.7676" y="240.6045"/><text fill="#000000" font-family="sans-serif" font-size="12" lengthAdjust="spacing" textLength="390.8555" x="247.7676" y="261.7432">RECEIVE MAP('DOGEMN1') MAPSET('DOGEMN') INTO(DOGEMN1I)</text><ellipse cx="443.1953" cy="304.5732" fill="none" rx="10" ry="10" style="stroke:#222222;stroke-width:1.5;"/><line style="stroke:#222222;stroke-width:2.5;" x1="437.0081" x2="449.3825" y1="298.3861" y2="310.7604"/><line style="stroke:#222222;stroke-width:2.5;" x1="449.3825" x2="437.0081" y1="298.3861" y2="310.7604"/><line style="stroke:#000000;stroke-width:1.5;" x1="231.7676" x2="231.7676" y1="12.7451" y2="314.5732"/><line style="stroke:#000000;stroke-width:1.5;" x1="652.623" x2="652.623" y1="12.7451" y2="314.5732"/><line style="stroke:#181818;stroke-width:1;" x1="124.3838" x2="124.3838" y1="58.6982" y2="78.6982"/><polygon fill="#181818" points="120.3838,68.6982,124.3838,78.6982,128.3838,68.6982,124.3838,72.6982" style="stroke:#181818;stroke-width:1;"/><line style="stroke:#181818;stroke-width:1;" x1="124.3838" x2="124.3838" y1="112.667" y2="132.667"/><polygon fill="#181818" points="120.3838,122.667,124.3838,132.667,128.3838,122.667,124.3838,126.667" style="stroke:#181818;stroke-width:1;"/><line style="stroke:#181818;stroke-width:1;" x1="124.3838" x2="124.3838" y1="166.6357" y2="186.6357"/><polygon fill="#181818" points="120.3838,176.6357,124.3838,186.6357,128.3838,176.6357,124.3838,180.6357" style="stroke:#181818;stroke-width:1;"/><line style="stroke:#181818;stroke-width:1;" x1="443.1953" x2="443.1953" y1="274.5732" y2="294.5732"/><polygon fill="#181818" points="439.1953,284.5732,443.1953,294.5732,447.1953,284.5732,443.1953,288.5732" style="stroke:#181818;stroke-width:1;"/><line style="stroke:#181818;stroke-width:1;" x1="124.3838" x2="124.3838" y1="220.6045" y2="225.6045"/><line style="stroke:#181818;stroke-width:1;" x1="124.3838" x2="443.1953" y1="225.6045" y2="225.6045"/><line style="stroke:#181818;stroke-width:1;" x1="443.1953" x2="443.1953" y1="225.6045" y2="240.6045"/><polygon fill="#181818" points="439.1953,230.6045,443.1953,240.6045,447.1953,230.6045,443.1953,234.6045" style="stroke:#181818;stroke-width:1;"/><text fill="#000000" font-family="sans-serif" font-size="18" lengthAdjust="spacing" textLength="98.8594" x="73.9541" y="29.4531">DOGECOIN</text><text fill="#000000" font-family="sans-serif" font-size="18" lengthAdjust="spacing" textLength="74.9971" x="404.6968" y="29.4531">External</text><!--SRC=[gr4sDh6qS76gSV5tTtNsz_IhuLAeKNOrDt4sTgvnhIX9BSfBp0698SaNboGMbQ0AMGMvEhjwXhdg-WU4UFhxMQF9EXONPwRdAPGbvfIcAfJaAuI7-ElwkWO7ExgxeYi5iNM1yY1n9FjX5YZuEWPeg8CK-VePgck2kC6k8J0He82dNuY_1bJUKnDeIcfU2W00]--></g></svg>