<svg xmlns="http://www.w3.org/2000/svg" xmlns:xlink="http://www.w3.org/1999/xlink" contentStyleType="text/css" data-diagram-type="ACTIVITY" height="404px" preserveAspectRatio="none" style="width:204px;height:404px;background:#FFFFFF;" version="1.1" viewBox="0 0 204 404" width="204px" zoomAndPan="magnify"><defs/><g><ellipse cx="102.4131" cy="20" fill="#222222" rx="10" ry="10" style="stroke:#222222;stroke-width:1;"/><rect fill="#F1F1F1" height="33.9688" rx="12.5" ry="12.5" style="stroke:#181818;stroke-width:0.5;" width="133.9355" x="35.4453" y="50"/><text fill="#000000" font-family="sans-serif" font-size="12" lengthAdjust="spacing" textLength="113.9355" x="45.4453" y="71.1387">FILL-SCREEN-DATA</text><rect fill="#F1F1F1" height="33.9688" rx="12.5" ry="12.5" style="stroke:#181818;stroke-width:0.5;" width="147.7637" x="28.5313" y="103.9688"/><text fill="#000000" font-family="sans-serif" font-size="12" lengthAdjust="spacing" textLength="127.7637" x="38.5313" y="125.1074">Assign value to KEYO</text><rect fill="#F1F1F1" height="33.9688" rx="12.5" ry="12.5" style="stroke:#181818;stroke-width:0.5;" width="157.3438" x="23.7412" y="157.9375"/><text fill="#000000" font-family="sans-serif" font-size="12" lengthAdjust="spacing" textLength="137.3438" x="33.7412" y="179.0762">Assign value to DATEO</text><rect fill="#F1F1F1" height="33.9688" rx="12.5" ry="12.5" style="stroke:#181818;stroke-width:0.5;" width="162.377" x="21.2246" y="211.9063"/><text fill="#000000" font-family="sans-serif" font-size="12" lengthAdjust="spacing" textLength="142.377" x="31.2246" y="233.0449">Assign value to LABELO</text><rect fill="#F1F1F1" height="33.9688" rx="12.5" ry="12.5" style="stroke:#181818;stroke-width:0.5;" width="182.8262" x="11" y="265.875"/><text fill="#000000" font-family="sans-serif" font-size="12" lengthAdjust="spacing" textLength="162.8262" x="21" y="287.0137">Assign value to ADDRESSO</text><rect fill="#F1F1F1" height="33.9688" rx="12.5" ry="12.5" style="stroke:#181818;stroke-width:0.5;" width="178.0801" x="13.373" y="319.8438"/><text fill="#000000" font-family="sans-serif" font-size="12" lengthAdjust="spacing" textLength="158.0801" x="23.373" y="340.9824">Assign value to AMOUNTO</text><ellipse cx="102.4131" cy="383.8125" fill="none" rx="10" ry="10" style="stroke:#222222;stroke-width:1.5;"/><line style="stroke:#222222;stroke-width:2.5;" x1="96.2259" x2="108.6003" y1="377.6253" y2="389.9997"/><line style="stroke:#222222;stroke-width:2.5;" x1="108.6003" x2="96.2259" y1="377.6253" y2="389.9997"/><line style="stroke:#181818;stroke-width:1;" x1="102.4131" x2="102.4131" y1="30" y2="50"/><polygon fill="#181818" points="98.4131,40,102.4131,50,106.4131,40,102.4131,44" style="stroke:#181818;stroke-width:1;"/><line style="stroke:#181818;stroke-width:1;" x1="102.4131" x2="102.4131" y1="83.9688" y2="103.9688"/><polygon fill="#181818" points="98.4131,93.9688,102.4131,103.9688,106.4131,93.9688,102.4131,97.9688" style="stroke:#181818;stroke-width:1;"/><line style="stroke:#181818;stroke-width:1;" x1="102.4131" x2="102.4131" y1="137.9375" y2="157.9375"/><polygon fill="#181818" points="98.4131,147.9375,102.4131,157.9375,106.4131,147.9375,102.4131,151.9375" style="stroke:#181818;stroke-width:1;"/><line style="stroke:#181818;stroke-width:1;" x1="102.4131" x2="102.4131" y1="191.9063" y2="211.9063"/><polygon fill="#181818" points="98.4131,201.9063,102.4131,211.9063,106.4131,201.9063,102.4131,205.9063" style="stroke:#181818;stroke-width:1;"/><line style="stroke:#181818;stroke-width:1;" x1="102.4131" x2="102.4131" y1="245.875" y2="265.875"/><polygon fill="#181818" points="98.4131,255.875,102.4131,265.875,106.4131,255.875,102.4131,259.875" style="stroke:#181818;stroke-width:1;"/><line style="stroke:#181818;stroke-width:1;" x1="102.4131" x2="102.4131" y1="299.8438" y2="319.8438"/><polygon fill="#181818" points="98.4131,309.8438,102.4131,319.8438,106.4131,309.8438,102.4131,313.8438" style="stroke:#181818;stroke-width:1;"/><line style="stroke:#181818;stroke-width:1;" x1="102.4131" x2="102.4131" y1="353.8125" y2="373.8125"/><polygon fill="#181818" points="98.4131,363.8125,102.4131,373.8125,106.4131,363.8125,102.4131,367.8125" style="stroke:#181818;stroke-width:1;"/><!--SRC=[gr4sDh6qS76gSV5tTtLnTGsfuL90PXUN91QLe0fPkNdw-EW6EmUvklhfkZY6E5gZoJiM5sUcvocK9UQKfYgKv2jukqRw4r83DCULe28VHoTN7uAg75rSWbo3Wmchy_KFzGi1AKlDIm40]--></g></svg>