<svg xmlns="http://www.w3.org/2000/svg" xmlns:xlink="http://www.w3.org/1999/xlink" contentStyleType="text/css" data-diagram-type="ACTIVITY" height="272px" preserveAspectRatio="none" style="width:579px;height:272px;background:#FFFFFF;" version="1.1" viewBox="0 0 579 272" width="579px" zoomAndPan="magnify"><defs/><g><rect fill="none" height="20.9531" style="stroke:none;stroke-width:1;" width="546.0093" x="15" y="12.7451"/><rect fill="#3498DB" height="247.8594" style="stroke:#3498DB;stroke-width:1;" width="153.7793" x="15" y="12.7451"/><ellipse cx="92.8896" cy="48.6982" fill="#222222" rx="10" ry="10" style="stroke:#222222;stroke-width:1;"/><rect fill="#F1F1F1" height="33.9688" rx="12.5" ry="12.5" style="stroke:#181818;stroke-width:0.5;" width="93.582" x="46.0986" y="78.6982"/><text fill="#000000" font-family="sans-serif" font-size="12" lengthAdjust="spacing" textLength="73.582" x="56.0986" y="99.8369">00000-MAIN</text><rect fill="#F1F1F1" height="33.9688" rx="12.5" ry="12.5" style="stroke:#181818;stroke-width:0.5;" width="143.7793" x="21" y="132.667"/><text fill="#000000" font-family="sans-serif" font-size="12" lengthAdjust="spacing" textLength="123.7793" x="31" y="153.8057">DOGE-MAIN-SCREEN</text><line style="stroke:#000000;stroke-width:1.5;" x1="15" x2="15" y1="12.7451" y2="260.6045"/><rect fill="#E74C3C" height="247.8594" style="stroke:#E74C3C;stroke-width:1;" width="390.3691" x="168.7793" y="12.7451"/><rect fill="#F1F1F1" height="33.9688" rx="12.5" ry="12.5" style="stroke:#181818;stroke-width:0.5;" width="380.3691" x="174.7793" y="186.6357"/><text fill="#000000" font-family="sans-serif" font-size="12" lengthAdjust="spacing" textLength="360.3691" x="184.7793" y="207.7744">RETURN TRANSID('DOGE') COMMAREA(DOGECOMMS-AREA)</text><ellipse cx="364.9639" cy="250.6045" fill="none" rx="10" ry="10" style="stroke:#222222;stroke-width:1.5;"/><line style="stroke:#222222;stroke-width:2.5;" x1="358.7767" x2="371.1511" y1="244.4173" y2="256.7917"/><line style="stroke:#222222;stroke-width:2.5;" x1="371.1511" x2="358.7767" y1="244.4173" y2="256.7917"/><line style="stroke:#000000;stroke-width:1.5;" x1="168.7793" x2="168.7793" y1="12.7451" y2="260.6045"/><line style="stroke:#000000;stroke-width:1.5;" x1="559.1484" x2="559.1484" y1="12.7451" y2="260.6045"/><line style="stroke:#181818;stroke-width:1;" x1="92.8896" x2="92.8896" y1="58.6982" y2="78.6982"/><polygon fill="#181818" points="88.8896,68.6982,92.8896,78.6982,96.8896,68.6982,92.8896,72.6982" style="stroke:#181818;stroke-width:1;"/><line style="stroke:#181818;stroke-width:1;" x1="92.8896" x2="92.8896" y1="112.667" y2="132.667"/><polygon fill="#181818" points="88.8896,122.667,92.8896,132.667,96.8896,122.667,92.8896,126.667" style="stroke:#181818;stroke-width:1;"/><line style="stroke:#181818;stroke-width:1;" x1="364.9639" x2="364.9639" y1="220.6045" y2="240.6045"/><polygon fill="#181818" points="360.9639,230.6045,364.9639,240.6045,368.9639,230.6045,364.9639,234.6045" style="stroke:#181818;stroke-width:1;"/><line style="stroke:#181818;stroke-width:1;" x1="92.8896" x2="92.8896" y1="166.6357" y2="171.6357"/><line style="stroke:#181818;stroke-width:1;" x1="92.8896" x2="364.9639" y1="171.6357" y2="171.6357"/><line style="stroke:#181818;stroke-width:1;" x1="364.9639" x2="364.9639" y1="171.6357" y2="186.6357"/><polygon fill="#181818" points="360.9639,176.6357,364.9639,186.6357,368.9639,176.6357,364.9639,180.6357" style="stroke:#181818;stroke-width:1;"/><text fill="#000000" font-family="sans-serif" font-size="18" lengthAdjust="spacing" textLength="98.8594" x="42.46" y="29.4531">DOGECOIN</text><text fill="#000000" font-family="sans-serif" font-size="18" lengthAdjust="spacing" textLength="74.9971" x="326.4653" y="29.4531">External</text><!--SRC=[gr4sDh6qS76gSV5tTtNsz_IhuLAeKNOrDt4sTgvnhIX9BSfBp0698SaNboGMbQ0AMHc0WAwlewUVDPeCY0sMq0rs3d9r1SiZ6MmLv1eI6kId41Baw1ViwQAX3bAlhgdWxE_hwnZawgW1CSlNDrWNnDK4Qa_DIm40]--></g></svg>