<svg xmlns="http://www.w3.org/2000/svg" xmlns:xlink="http://www.w3.org/1999/xlink" contentStyleType="text/css" data-diagram-type="ACTIVITY" height="704px" preserveAspectRatio="none" style="width:558px;height:704px;background:#FFFFFF;" version="1.1" viewBox="0 0 558 704" width="558px" zoomAndPan="magnify"><defs/><g><rect fill="none" height="20.9531" style="stroke:none;stroke-width:1;" width="525.4946" x="15" y="12.7451"/><rect fill="#3498DB" height="679.6094" style="stroke:#3498DB;stroke-width:1;" width="216.7676" x="15" y="12.7451"/><ellipse cx="124.3838" cy="48.6982" fill="#222222" rx="10" ry="10" style="stroke:#222222;stroke-width:1;"/><rect fill="#F1F1F1" height="33.9688" rx="12.5" ry="12.5" style="stroke:#181818;stroke-width:0.5;" width="86.0938" x="81.3369" y="78.6982"/><text fill="#000000" font-family="sans-serif" font-size="12" lengthAdjust="spacing" textLength="66.0938" x="91.3369" y="99.8369">PARSE-KEY</text><rect fill="#F1F1F1" height="33.9688" rx="12.5" ry="12.5" style="stroke:#181818;stroke-width:0.5;" width="206.7676" x="21" y="132.667"/><text fill="#000000" font-family="sans-serif" font-size="12" lengthAdjust="spacing" textLength="186.7676" x="31" y="153.8057">Assign value to WTO-MESSAGE</text><rect fill="#F1F1F1" height="33.9688" rx="12.5" ry="12.5" style="stroke:#181818;stroke-width:0.5;" width="88.5371" x="80.1152" y="186.6357"/><text fill="#000000" font-family="sans-serif" font-size="12" lengthAdjust="spacing" textLength="68.5371" x="90.1152" y="207.7744">DOGE-WTO</text><rect fill="#F1F1F1" height="33.9688" rx="12.5" ry="12.5" style="stroke:#181818;stroke-width:0.5;" width="88.5371" x="80.1152" y="294.5732"/><text fill="#000000" font-family="sans-serif" font-size="12" lengthAdjust="spacing" textLength="68.5371" x="90.1152" y="315.7119">DOGE-WTO</text><rect fill="#F1F1F1" height="33.9688" rx="12.5" ry="12.5" style="stroke:#181818;stroke-width:0.5;" width="206.7676" x="21" y="348.542"/><text fill="#000000" font-family="sans-serif" font-size="12" lengthAdjust="spacing" textLength="186.7676" x="31" y="369.6807">Assign value to WTO-MESSAGE</text><rect fill="#F1F1F1" height="33.9688" rx="12.5" ry="12.5" style="stroke:#181818;stroke-width:0.5;" width="88.5371" x="80.1152" y="402.5107"/><text fill="#000000" font-family="sans-serif" font-size="12" lengthAdjust="spacing" textLength="68.5371" x="90.1152" y="423.6494">DOGE-WTO</text><rect fill="#F1F1F1" height="33.9688" rx="12.5" ry="12.5" style="stroke:#181818;stroke-width:0.5;" width="156.1309" x="46.3184" y="456.4795"/><text fill="#000000" font-family="sans-serif" font-size="12" lengthAdjust="spacing" textLength="136.1309" x="56.3184" y="477.6182">DOGE-START-BROWSE</text><rect fill="#F1F1F1" height="33.9688" rx="12.5" ry="12.5" style="stroke:#181818;stroke-width:0.5;" width="188.5273" x="30.1201" y="510.4482"/><text fill="#000000" font-family="sans-serif" font-size="12" lengthAdjust="spacing" textLength="168.5273" x="40.1201" y="531.5869">DOGE-SHOW-TRANSACTION</text><rect fill="#F1F1F1" height="33.9688" rx="12.5" ry="12.5" style="stroke:#181818;stroke-width:0.5;" width="206.7676" x="21" y="564.417"/><text fill="#000000" font-family="sans-serif" font-size="12" lengthAdjust="spacing" textLength="186.7676" x="31" y="585.5557">Assign value to WTO-MESSAGE</text><rect fill="#F1F1F1" height="33.9688" rx="12.5" ry="12.5" style="stroke:#181818;stroke-width:0.5;" width="206.7676" x="21" y="618.3857"/><text fill="#000000" font-family="sans-serif" font-size="12" lengthAdjust="spacing" textLength="186.7676" x="31" y="639.5244">Assign value to WTO-MESSAGE</text><ellipse cx="124.3838" cy="682.3545" fill="none" rx="10" ry="10" style="stroke:#222222;stroke-width:1.5;"/><line style="stroke:#222222;stroke-width:2.5;" x1="118.1966" x2="130.571" y1="676.1673" y2="688.5417"/><line style="stroke:#222222;stroke-width:2.5;" x1="130.571" x2="118.1966" y1="676.1673" y2="688.5417"/><line style="stroke:#000000;stroke-width:1.5;" x1="15" x2="15" y1="12.7451" y2="692.3545"/><rect fill="#E74C3C" height="679.6094" style="stroke:#E74C3C;stroke-width:1;" width="84.9971" x="231.7676" y="12.7451"/><line style="stroke:#000000;stroke-width:1.5;" x1="231.7676" x2="231.7676" y1="12.7451" y2="692.3545"/><rect fill="#F1C40F" height="679.6094" style="stroke:#F1C40F;stroke-width:1;" width="221.8691" x="316.7646" y="12.7451"/><rect fill="#F1F1F1" height="33.9688" rx="12.5" ry="12.5" style="stroke:#181818;stroke-width:0.5;" width="200.0293" x="328.6846" y="240.6045"/><text fill="#000000" font-family="sans-serif" font-size="12" lengthAdjust="spacing" textLength="180.0293" x="338.6846" y="261.7432">XCTL PROGRAM('DOGETRAN')</text><line style="stroke:#000000;stroke-width:1.5;" x1="316.7646" x2="316.7646" y1="12.7451" y2="692.3545"/><line style="stroke:#000000;stroke-width:1.5;" x1="538.6338" x2="538.6338" y1="12.7451" y2="692.3545"/><line style="stroke:#181818;stroke-width:1;" x1="124.3838" x2="124.3838" y1="58.6982" y2="78.6982"/><polygon fill="#181818" points="120.3838,68.6982,124.3838,78.6982,128.3838,68.6982,124.3838,72.6982" style="stroke:#181818;stroke-width:1;"/><line style="stroke:#181818;stroke-width:1;" x1="124.3838" x2="124.3838" y1="112.667" y2="132.667"/><polygon fill="#181818" points="120.3838,122.667,124.3838,132.667,128.3838,122.667,124.3838,126.667" style="stroke:#181818;stroke-width:1;"/><line style="stroke:#181818;stroke-width:1;" x1="124.3838" x2="124.3838" y1="166.6357" y2="186.6357"/><polygon fill="#181818" points="120.3838,176.6357,124.3838,186.6357,128.3838,176.6357,124.3838,180.6357" style="stroke:#181818;stroke-width:1;"/><line style="stroke:#181818;stroke-width:1;" x1="124.3838" x2="124.3838" y1="328.542" y2="348.542"/><polygon fill="#181818" points="120.3838,338.542,124.3838,348.542,128.3838,338.542,124.3838,342.542" style="stroke:#181818;stroke-width:1;"/><line style="stroke:#181818;stroke-width:1;" x1="124.3838" x2="124.3838" y1="382.5107" y2="402.5107"/><polygon fill="#181818" points="120.3838,392.5107,124.3838,402.5107,128.3838,392.5107,124.3838,396.5107" style="stroke:#181818;stroke-width:1;"/><line style="stroke:#181818;stroke-width:1;" x1="124.3838" x2="124.3838" y1="436.4795" y2="456.4795"/><polygon fill="#181818" points="120.3838,446.4795,124.3838,456.4795,128.3838,446.4795,124.3838,450.4795" style="stroke:#181818;stroke-width:1;"/><line style="stroke:#181818;stroke-width:1;" x1="124.3838" x2="124.3838" y1="490.4482" y2="510.4482"/><polygon fill="#181818" points="120.3838,500.4482,124.3838,510.4482,128.3838,500.4482,124.3838,504.4482" style="stroke:#181818;stroke-width:1;"/><line style="stroke:#181818;stroke-width:1;" x1="124.3838" x2="124.3838" y1="544.417" y2="564.417"/><polygon fill="#181818" points="120.3838,554.417,124.3838,564.417,128.3838,554.417,124.3838,558.417" style="stroke:#181818;stroke-width:1;"/><line style="stroke:#181818;stroke-width:1;" x1="124.3838" x2="124.3838" y1="598.3857" y2="618.3857"/><polygon fill="#181818" points="120.3838,608.3857,124.3838,618.3857,128.3838,608.3857,124.3838,612.3857" style="stroke:#181818;stroke-width:1;"/><line style="stroke:#181818;stroke-width:1;" x1="124.3838" x2="124.3838" y1="652.3545" y2="672.3545"/><polygon fill="#181818" points="120.3838,662.3545,124.3838,672.3545,128.3838,662.3545,124.3838,666.3545" style="stroke:#181818;stroke-width:1;"/><line style="stroke:#181818;stroke-width:1;" x1="124.3838" x2="124.3838" y1="220.6045" y2="225.6045"/><line style="stroke:#181818;stroke-width:1;" x1="124.3838" x2="428.6992" y1="225.6045" y2="225.6045"/><line style="stroke:#181818;stroke-width:1;" x1="428.6992" x2="428.6992" y1="225.6045" y2="240.6045"/><polygon fill="#181818" points="424.6992,230.6045,428.6992,240.6045,432.6992,230.6045,428.6992,234.6045" style="stroke:#181818;stroke-width:1;"/><line style="stroke:#181818;stroke-width:1;" x1="428.6992" x2="428.6992" y1="274.5732" y2="279.5732"/><line style="stroke:#181818;stroke-width:1;" x1="428.6992" x2="124.3838" y1="279.5732" y2="279.5732"/><line style="stroke:#181818;stroke-width:1;" x1="124.3838" x2="124.3838" y1="279.5732" y2="294.5732"/><polygon fill="#181818" points="120.3838,284.5732,124.3838,294.5732,128.3838,284.5732,124.3838,288.5732" style="stroke:#181818;stroke-width:1;"/><text fill="#000000" font-family="sans-serif" font-size="18" lengthAdjust="spacing" textLength="100.9512" x="72.9082" y="29.4531">DOGEDEET</text><text fill="#000000" font-family="sans-serif" font-size="18" lengthAdjust="spacing" textLength="74.9971" x="236.7676" y="29.4531">External</text><text fill="#000000" font-family="sans-serif" font-size="18" lengthAdjust="spacing" textLength="211.8691" x="321.7646" y="29.4531">Other COBOL Programs</text><!--SRC=[hOux2y8m58LtVqN0GHq2YWLVKvhULb5x9GbKnu951MqXZUAG7s_ZvBEBRfVld7FvRBFlZOQ1RmEC801Gja5i4mOUxtCBLvFfF3tUMTZZNZUqQFQP9XnzN92LBdOwFPKkVzYN9jNc6OrNJ4YWSzXCNW9MbeTTJYxfyPmHKv148Ls2b2o2rwgxQPKx_aLZlEQg0W8ZmPRjbbiemU9Mf-xN7tJUk5HCAEeBJEJdePnYGfsRP5pDCFv1fBwQvTiR]--></g></svg>